<?xml version="1.0" encoding="utf-8"?>
<!-- Generator: Adobe Illustrator 23.0.4, SVG Export Plug-In . SVG Version: 6.00 Build 0)  -->
<svg version="1.1" id="Ebene_1" xmlns="http://www.w3.org/2000/svg" xmlns:xlink="http://www.w3.org/1999/xlink" x="0px" y="0px"
	 viewBox="0 0 256 256" style="enable-background:new 0 0 256 256;" xml:space="preserve">
<style type="text/css">
	.st0{fill:#B264A3;}
	.st1{fill:none;}
	.st2{fill:#FFFFFF;}
</style>
<rect class="st0" width="256" height="256"/>
<path class="st1" d="M133.7,104.7c-4.2,0-5.7,3.4-5.7,5.7c0,1.2,0.4,3,2.1,4.5c0.5,0.4,1.1,0.8,1.7,1.1h12.5
	C142.2,111.2,138.2,104.7,133.7,104.7z"/>
<path class="st1" d="M175.5,104.7c-4.4,0-8.5,6.6-10.6,11.4h12.5c0.6-0.3,1.2-0.7,1.7-1.1c1.7-1.5,2.1-3.3,2.1-4.5
	C181.2,108.1,179.7,104.7,175.5,104.7z"/>
<path class="st2" d="M72.5,175.6c0,4.4,3.5,7.9,7.9,7.9h39.7v-39.7H72.5V175.6z M135.9,183.5h39.7c4.4,0,7.9-3.5,7.9-7.9v-31.7
	h-47.6V183.5z M183.5,104.2h-10.4c1.5-3,2.5-6.3,2.5-9.9c0-12-9.8-21.8-21.8-21.8c-10.3,0-17,5.3-25.5,16.9
	c-8.6-11.7-15.2-16.9-25.5-16.9c-12,0-21.8,9.8-21.8,21.8c0,3.6,0.9,6.9,2.5,9.9H72.5c-4.4,0-7.9,3.5-7.9,7.9V132c0,2.2,1.8,4,4,4
	h119c2.2,0,4-1.8,4-4v-19.8C191.5,107.7,187.9,104.2,183.5,104.2z M102.7,104.2c-5.5,0-9.9-4.4-9.9-9.9c0-5.5,4.4-9.9,9.9-9.9
	c4.9,0,8.6,0.8,21.3,19.8H102.7z M153.8,104.2h-21.3c12.7-19,16.3-19.8,21.3-19.8c5.5,0,9.9,4.4,9.9,9.9
	C163.7,99.8,159.3,104.2,153.8,104.2z"/>
</svg>
